<svg width="90" height="90" viewBox="0 0 90 90" fill="none" xmlns="http://www.w3.org/2000/svg">
<path d="M59.3596 58.8519C55.1666 63.0449 55.6907 71.5058 55.6907 71.5058H34.4261C34.4261 71.5058 34.8754 63.0449 30.7572 58.8519C26.1898 54.8086 23.2697 48.9684 23.2697 42.4542C23.2697 30.4742 33.0035 20.7404 44.9835 20.7404C56.9636 20.7404 66.6973 30.4742 66.6973 42.4542C66.6973 48.9684 63.8521 54.8086 59.3596 58.8519Z" fill="#FFD517"/>
<path d="M56.2897 78.1697C56.2897 79.2929 55.3912 80.1914 54.2681 80.1914H35.7739C34.6508 80.1914 33.7523 79.2929 33.7523 78.1697C33.7523 77.0466 34.6508 76.1481 35.7739 76.1481H54.1932C55.3163 76.1481 56.2897 77.0466 56.2897 78.1697Z" fill="#E5E5E5"/>
<path d="M53.5193 86.5557C53.5193 87.6789 52.6208 88.5774 51.4977 88.5774H38.5443C37.4211 88.5774 36.5226 87.6789 36.5226 86.5557C36.5226 85.4326 37.4211 84.5341 38.5443 84.5341H51.4977C52.6208 84.5341 53.5193 85.4326 53.5193 86.5557Z" fill="#E5E5E5"/>
<path d="M60.4827 59.6007C65.3496 55.183 68.1199 48.9684 68.1199 42.4542C68.1199 29.7255 57.7123 19.3178 44.9835 19.3178C32.2547 19.3178 21.8471 29.7255 21.8471 42.4542C21.8471 49.1181 24.7672 55.4825 29.709 59.8253C33.3779 63.4942 33.0035 71.2812 33.0035 71.3561C33.0035 71.7305 33.1532 72.1048 33.3779 72.4043C33.6774 72.7038 34.0517 72.8536 34.4261 72.8536H55.6158C55.9902 72.8536 56.3645 72.7038 56.664 72.4043C56.9635 72.1048 57.0384 71.7305 57.0384 71.3561C57.0384 71.2812 56.664 63.4942 60.3329 59.8253C60.4078 59.7504 60.4827 59.6756 60.4827 59.6007ZM58.3862 57.7288C58.2364 57.8037 58.1615 57.9534 58.0867 58.1032C54.7922 61.6223 54.268 67.3877 54.1932 70.0832H35.8487C35.7739 67.3128 35.1749 61.3228 31.6557 57.8037C27.2381 53.9102 24.6923 48.3694 24.6923 42.5291C24.6923 31.2978 33.8271 22.2379 44.9835 22.2379C56.2148 22.2379 65.2747 31.3727 65.2747 42.5291C65.2747 48.2945 62.8038 53.9102 58.3862 57.7288Z" fill="#210B20"/>
<path d="M44.9835 25.3078C44.2348 25.3078 43.5609 25.9068 43.5609 26.7304C43.5609 27.4792 44.1599 28.1531 44.9835 28.1531C53.3695 28.1531 60.1832 34.9667 60.1832 43.3527C60.1832 44.1015 60.7822 44.7754 61.6058 44.7754C62.3546 44.7754 63.0284 44.1764 63.0284 43.3527C63.0284 33.3943 54.9419 25.3078 44.9835 25.3078Z" fill="#210B20"/>
<path d="M57.7123 78.1697C57.7123 76.223 56.1399 74.7255 54.2681 74.7255H35.7739C33.8271 74.7255 32.3296 76.2978 32.3296 78.1697C32.3296 80.1165 33.902 81.614 35.7739 81.614H54.1932C56.1399 81.614 57.7123 80.1165 57.7123 78.1697ZM54.1932 78.7687H35.7739C35.3995 78.7687 35.1749 78.4692 35.1749 78.1697C35.1749 77.7953 35.4744 77.5707 35.7739 77.5707H54.1932C54.5676 77.5707 54.7922 77.8702 54.7922 78.1697C54.8671 78.5441 54.5676 78.7687 54.1932 78.7687Z" fill="#210B20"/>
<path d="M51.4976 83.1115H38.5442C36.5975 83.1115 35.1 84.6839 35.1 86.5557C35.1 88.5025 36.6724 90 38.5442 90H51.4976C53.4444 90 54.9419 88.4276 54.9419 86.5557C54.9419 84.6839 53.3695 83.1115 51.4976 83.1115ZM51.4976 87.1547H38.5442C38.1699 87.1547 37.9452 86.8552 37.9452 86.5557C37.9452 86.1814 38.2447 85.9567 38.5442 85.9567H51.4976C51.872 85.9567 52.0967 86.2562 52.0967 86.5557C52.0967 86.9301 51.872 87.1547 51.4976 87.1547Z" fill="#210B20"/>
<path d="M46.4061 11.0067V1.42263C46.4061 0.673877 45.8071 0 44.9835 0C44.2348 0 43.5609 0.599002 43.5609 1.42263V11.0815C43.5609 11.8303 44.1599 12.5042 44.9835 12.5042C45.8071 12.4293 46.4061 11.8303 46.4061 11.0067Z" fill="#210B20"/>
<path d="M68.5692 7.11315C67.8953 6.66389 67.0717 6.88852 66.6225 7.48752L61.3063 15.4992C60.8571 16.173 61.0817 16.9967 61.6807 17.4459C61.9053 17.5957 62.2048 17.6706 62.4295 17.6706C62.8787 17.6706 63.328 17.4459 63.6275 17.0715L68.9436 9.0599C69.3928 8.4609 69.1682 7.5624 68.5692 7.11315Z" fill="#210B20"/>
<path d="M28.0617 17.3711C28.2864 17.3711 28.5859 17.2962 28.8105 17.1464C29.4844 16.6972 29.6341 15.8736 29.2597 15.1997L24.0933 7.11315C23.6441 6.43927 22.8205 6.28952 22.1466 6.6639C21.4727 7.11315 21.3229 7.93678 21.6973 8.61066L26.8637 16.6972C27.1632 17.1464 27.6125 17.3711 28.0617 17.3711Z" fill="#210B20"/>
<path d="M8.21979 24.1098L16.6807 28.6772C16.9053 28.827 17.1299 28.827 17.3546 28.827C17.8787 28.827 18.3279 28.5275 18.6274 28.0782C19.0018 27.4043 18.7772 26.5058 18.0284 26.1315L9.56755 21.5641C8.89367 21.1897 7.99517 21.4143 7.62079 22.1631C7.32129 22.9118 7.54592 23.7354 8.21979 24.1098Z" fill="#210B20"/>
<path d="M72.6125 28.9018C72.8371 28.9018 73.0617 28.827 73.2864 28.7521L81.7473 24.1847C82.4211 23.8103 82.7206 22.9867 82.3463 22.2379C81.9719 21.5641 81.1483 21.2646 80.3995 21.6389L71.9386 26.2063C71.2647 26.5807 70.9652 27.4043 71.3396 28.1531C71.5642 28.6023 72.0884 28.9018 72.6125 28.9018Z" fill="#210B20"/>
</svg>
