<svg width="66" height="66" viewBox="0 0 66 66" fill="none" xmlns="http://www.w3.org/2000/svg">
<path d="M4.11946 2.74995H61.8804C64.1556 2.74995 65.9999 4.59434 65.9999 6.86941V59.1305C65.9999 61.4057 64.1555 63.2499 61.8804 63.2499H4.11946C1.84439 63.25 0 61.4057 0 59.1305V6.86954C0 4.59434 1.84439 2.74995 4.11946 2.74995Z" fill="#CFD8DC"/>
<path d="M31.4793 23.9913L27.3543 32.2413C27.0737 32.8162 26.43 33.1175 25.8088 32.9646C25.188 32.8179 24.7496 32.2634 24.7501 31.6254V17.8754C24.7493 17.2828 25.1283 16.7563 25.6906 16.5692C25.8311 16.524 25.9776 16.501 26.1252 16.5004C26.5579 16.5004 26.9655 16.7042 27.2251 17.0505L31.3501 22.5505C31.6627 22.9674 31.7127 23.5253 31.4793 23.9913Z" fill="#2196F3"/>
<path d="M44 23.3754C44.0059 23.077 43.9088 22.7857 43.725 22.5504L39.6 17.0504C39.3467 16.6966 38.935 16.4908 38.5 16.5003H26.125C25.3657 16.5003 24.75 17.116 24.75 17.8754C24.75 18.1729 24.8466 18.4624 25.025 18.7004L28.5174 23.3754H44Z" fill="#1E88E5"/>
<path d="M28.5175 23.3754L28.6275 23.5129L24.8875 31.0204C24.6845 31.4421 24.7051 31.9372 24.9426 32.3404C25.201 32.7449 25.6451 32.9928 26.125 33.0004H39.8751C40.4651 33.0083 40.9904 32.6283 41.1676 32.0655L43.9176 23.8155C43.9715 23.675 43.9994 23.526 44.0001 23.3755H28.5175V23.3754Z" fill="#64B5F6"/>
<path d="M39.875 46.7504H26.125C25.3657 46.7504 24.75 46.1347 24.75 45.3753V31.6253H41.25V45.3753C41.25 46.1347 40.6343 46.7504 39.875 46.7504Z" fill="#2196F3"/>
<path d="M38.5 16.5003H26.125C25.3657 16.5003 24.75 17.116 24.75 17.8754V45.3753C24.75 46.1347 25.3657 46.7504 26.125 46.7504H39.8751C40.6345 46.7504 41.2501 46.1347 41.2501 45.3753V31.848L43.9287 23.8098C44.0715 23.382 43.9954 22.9113 43.7251 22.5503L39.6001 17.0502C39.3404 16.7041 38.9328 16.5003 38.5 16.5003ZM27.5 19.2504H37.8125L41.0932 23.6256L38.5715 31.1909C38.5244 31.3309 38.5003 31.4777 38.4999 31.6254V44.0004H27.5V19.2504Z" fill="black"/>
<path d="M26.125 16.5003C25.3656 16.5003 24.75 17.116 24.75 17.8754C24.75 18.1729 24.8465 18.4624 25.0249 18.7004L28.6384 23.5211L24.8956 31.0094C24.5554 31.6883 24.83 32.5145 25.509 32.8547C25.7001 32.9504 25.911 33.0003 26.1249 33.0003H39.8749C40.6343 33.0003 41.25 32.3847 41.25 31.6253C41.25 30.8659 40.6343 30.2502 39.8749 30.2502H28.3497L31.4791 23.9912C31.7115 23.526 31.6615 22.9694 31.3498 22.553L27.2248 17.0529C26.9659 16.7058 26.5583 16.501 26.125 16.5003Z" fill="black"/>
<path d="M42.625 22.0004H30.25C29.4907 22.0004 28.875 22.616 28.875 23.3754C28.875 24.1348 29.4907 24.7505 30.25 24.7505H42.625C43.3844 24.7505 44.0001 24.1348 44.0001 23.3754C44.0001 22.616 43.3844 22.0004 42.625 22.0004Z" fill="black"/>
<path d="M9.62506 16.5C11.9032 16.5 13.7501 14.6532 13.7501 12.375C13.7501 10.0968 11.9032 8.25 9.62506 8.25C7.34689 8.25 5.50006 10.0968 5.50006 12.375C5.50006 14.6532 7.34689 16.5 9.62506 16.5Z" fill="#607D8B"/>
<path d="M56.375 16.5C58.6532 16.5 60.5 14.6532 60.5 12.375C60.5 10.0968 58.6532 8.25 56.375 8.25C54.0968 8.25 52.25 10.0968 52.25 12.375C52.25 14.6532 54.0968 16.5 56.375 16.5Z" fill="#607D8B"/>
<path d="M56.375 57.75C58.6532 57.75 60.5 55.9032 60.5 53.625C60.5 51.3468 58.6532 49.5 56.375 49.5C54.0968 49.5 52.25 51.3468 52.25 53.625C52.25 55.9032 54.0968 57.75 56.375 57.75Z" fill="#607D8B"/>
<path d="M9.62506 57.75C11.9032 57.75 13.7501 55.9032 13.7501 53.625C13.7501 51.3468 11.9032 49.5 9.62506 49.5C7.34689 49.5 5.50006 51.3468 5.50006 53.625C5.50006 55.9032 7.34689 57.75 9.62506 57.75Z" fill="#607D8B"/>
<path d="M61.875 63.25H4.125C1.84684 63.25 0 61.4032 0 59.125V6.87495C0 4.59679 1.84684 2.74995 4.125 2.74995H61.875C64.1532 2.74995 66 4.59679 66 6.87495V59.1249C66 61.4032 64.1532 63.25 61.875 63.25ZM4.125 5.50004C3.36561 5.50004 2.74996 6.1157 2.74996 6.87508V59.125C2.74996 59.8844 3.36561 60.5001 4.125 60.5001H61.875C62.6344 60.5001 63.25 59.8844 63.25 59.125V6.87495C63.25 6.11557 62.6344 5.49991 61.875 5.49991H4.125V5.50004Z" fill="black"/>
<path d="M9.62506 16.5C7.3469 16.5 5.50006 14.6532 5.50006 12.375C5.50006 10.0968 7.3469 8.25 9.62506 8.25C11.9032 8.25 13.7501 10.0968 13.7501 12.375C13.7501 14.6532 11.9032 16.5 9.62506 16.5ZM9.62506 11C8.86567 11 8.25002 11.6156 8.25002 12.375C8.25002 13.1344 8.86567 13.75 9.62506 13.75C10.3844 13.75 11 13.1344 11 12.375C11 11.6156 10.3844 11 9.62506 11Z" fill="black"/>
<path d="M56.3749 16.5C54.0968 16.5 52.2499 14.6532 52.2499 12.375C52.2499 10.0968 54.0968 8.25 56.3749 8.25C58.6531 8.25 60.4999 10.0968 60.4999 12.375C60.4999 14.6532 58.6531 16.5 56.3749 16.5ZM56.3749 11C55.6156 11 54.9999 11.6156 54.9999 12.375C54.9999 13.1344 55.6156 13.75 56.3749 13.75C57.1343 13.75 57.75 13.1344 57.75 12.375C57.75 11.6156 57.1343 11 56.3749 11Z" fill="black"/>
<path d="M56.3749 57.75C54.0968 57.75 52.2499 55.9032 52.2499 53.625C52.2499 51.3468 54.0968 49.5 56.3749 49.5C58.6531 49.5 60.4999 51.3468 60.4999 53.625C60.4999 55.9032 58.6531 57.75 56.3749 57.75ZM56.3749 52.25C55.6156 52.25 54.9999 52.8656 54.9999 53.625C54.9999 54.3844 55.6156 55 56.3749 55C57.1343 55 57.75 54.3844 57.75 53.625C57.75 52.8656 57.1343 52.25 56.3749 52.25Z" fill="black"/>
<path d="M9.62506 57.75C7.3469 57.75 5.50006 55.9032 5.50006 53.625C5.50006 51.3468 7.3469 49.5 9.62506 49.5C11.9032 49.5 13.7501 51.3468 13.7501 53.625C13.7501 55.9032 11.9032 57.75 9.62506 57.75ZM9.62506 52.25C8.86567 52.25 8.25002 52.8656 8.25002 53.625C8.25002 54.3844 8.86567 55 9.62506 55C10.3844 55 11 54.3844 11 53.625C11 52.8656 10.3844 52.25 9.62506 52.25Z" fill="black"/>
</svg>
