<svg width="66" height="66" viewBox="0 0 66 66" fill="none" xmlns="http://www.w3.org/2000/svg">
<path d="M4.11946 2.74995H61.8804C64.1556 2.74995 65.9999 4.59434 65.9999 6.86941V59.1305C65.9999 61.4057 64.1555 63.2499 61.8804 63.2499H4.11946C1.84439 63.25 0 61.4057 0 59.1305V6.86954C0 4.59434 1.84439 2.74995 4.11946 2.74995Z" fill="#CFD8DC"/>
<path d="M31.4793 39.259L27.3543 31.009C27.0737 30.4341 26.43 30.1329 25.8088 30.2857C25.188 30.4324 24.7496 30.987 24.7501 31.625V45.375C24.7494 45.9676 25.1283 46.494 25.6906 46.6812C25.8311 46.7263 25.9776 46.7494 26.1252 46.7499C26.5579 46.7499 26.9655 46.5461 27.2251 46.1999L31.3501 40.6998C31.6627 40.2829 31.7127 39.725 31.4793 39.259Z" fill="#2196F3"/>
<path d="M9.62504 16.5C11.9032 16.5 13.75 14.6532 13.75 12.375C13.75 10.0968 11.9032 8.25 9.62504 8.25C7.34687 8.25 5.50004 10.0968 5.50004 12.375C5.50004 14.6532 7.34687 16.5 9.62504 16.5Z" fill="#607D8B"/>
<path d="M56.375 16.5C58.6531 16.5 60.5 14.6532 60.5 12.375C60.5 10.0968 58.6531 8.25 56.375 8.25C54.0968 8.25 52.25 10.0968 52.25 12.375C52.25 14.6532 54.0968 16.5 56.375 16.5Z" fill="#607D8B"/>
<path d="M56.375 57.75C58.6531 57.75 60.5 55.9032 60.5 53.625C60.5 51.3468 58.6531 49.5 56.375 49.5C54.0968 49.5 52.25 51.3468 52.25 53.625C52.25 55.9032 54.0968 57.75 56.375 57.75Z" fill="#607D8B"/>
<path d="M9.62504 57.75C11.9032 57.75 13.75 55.9032 13.75 53.625C13.75 51.3468 11.9032 49.5 9.62504 49.5C7.34687 49.5 5.50004 51.3468 5.50004 53.625C5.50004 55.9032 7.34687 57.75 9.62504 57.75Z" fill="#607D8B"/>
<path d="M44 39.875C44.0059 40.1734 43.9088 40.4647 43.725 40.7L39.6 46.2C39.3467 46.5537 38.935 46.7596 38.5 46.75H26.125C25.3657 46.75 24.75 46.1344 24.75 45.375C24.75 45.0775 24.8466 44.788 25.025 44.55L28.5174 39.875H44Z" fill="#1E88E5"/>
<path d="M28.5175 39.875L28.6275 39.7374L24.8875 32.2299C24.6845 31.8083 24.7051 31.3131 24.9426 30.9099C25.201 30.5054 25.6451 30.2575 26.125 30.2499H39.8751C40.4651 30.2421 40.9904 30.6221 41.1676 31.1849L43.9176 39.4349C43.9715 39.5754 43.9994 39.7244 44.0001 39.8748H28.5175V39.875Z" fill="#64B5F6"/>
<path d="M39.875 16.5H26.125C25.3657 16.5 24.75 17.1157 24.75 17.875V31.6251H41.25V17.875C41.25 17.1157 40.6343 16.5 39.875 16.5Z" fill="#2196F3"/>
<path d="M38.5 46.75H26.125C25.3657 46.75 24.75 46.1344 24.75 45.375V17.875C24.75 17.1157 25.3657 16.5 26.125 16.5H39.8751C40.6345 16.5 41.2501 17.1157 41.2501 17.875V31.4023L43.9287 39.4405C44.0715 39.8684 43.9954 40.339 43.7251 40.7001L39.6001 46.2001C39.3404 46.5462 38.9328 46.75 38.5 46.75ZM27.5 44H37.8125L41.0932 39.6247L38.5715 32.0595C38.5244 31.9195 38.5003 31.7727 38.4999 31.625V19.25H27.5V44Z" fill="black"/>
<path d="M26.125 46.75C25.3657 46.75 24.75 46.1344 24.75 45.375C24.75 45.0775 24.8466 44.788 25.025 44.55L28.6385 39.7293L24.8957 32.241C24.5555 31.562 24.8301 30.7359 25.509 30.3957C25.7002 30.2999 25.9111 30.25 26.1249 30.25H39.875C40.6343 30.25 41.25 30.8657 41.25 31.6251C41.25 32.3845 40.6343 33.0001 39.875 33.0001H28.3497L31.4792 39.2592C31.7116 39.7244 31.6616 40.281 31.3499 40.6974L27.2249 46.1974C26.9659 46.5446 26.5583 46.7494 26.125 46.75Z" fill="black"/>
<path d="M42.625 41.25H30.25C29.4907 41.25 28.875 40.6343 28.875 39.875C28.875 39.1156 29.4907 38.4999 30.25 38.4999H42.625C43.3844 38.4999 44.0001 39.1156 44.0001 39.875C44.0001 40.6343 43.3844 41.25 42.625 41.25Z" fill="black"/>
<path d="M61.875 63.25H4.125C1.84684 63.25 0 61.4032 0 59.125V6.87495C0 4.59679 1.84684 2.74995 4.125 2.74995H61.875C64.1532 2.74995 66 4.59679 66 6.87495V59.1249C66 61.4032 64.1532 63.25 61.875 63.25ZM4.125 5.50004C3.36561 5.50004 2.74996 6.1157 2.74996 6.87508V59.125C2.74996 59.8844 3.36561 60.5001 4.125 60.5001H61.875C62.6344 60.5001 63.25 59.8844 63.25 59.125V6.87495C63.25 6.11557 62.6344 5.49991 61.875 5.49991H4.125V5.50004Z" fill="black"/>
<path d="M9.62504 16.5C7.34688 16.5 5.50004 14.6532 5.50004 12.375C5.50004 10.0968 7.34688 8.25 9.62504 8.25C11.9032 8.25 13.75 10.0968 13.75 12.375C13.75 14.6532 11.9032 16.5 9.62504 16.5ZM9.62504 11C8.86566 11 8.25 11.6156 8.25 12.375C8.25 13.1344 8.86566 13.75 9.62504 13.75C10.3844 13.75 11 13.1344 11 12.375C11 11.6156 10.3844 11 9.62504 11Z" fill="black"/>
<path d="M56.375 16.5C54.0968 16.5 52.25 14.6532 52.25 12.375C52.25 10.0968 54.0968 8.25 56.375 8.25C58.6531 8.25 60.5 10.0968 60.5 12.375C60.5 14.6532 58.6531 16.5 56.375 16.5ZM56.375 11C55.6156 11 54.9999 11.6156 54.9999 12.375C54.9999 13.1344 55.6156 13.75 56.375 13.75C57.1343 13.75 57.75 13.1344 57.75 12.375C57.75 11.6156 57.1343 11 56.375 11Z" fill="black"/>
<path d="M56.375 57.75C54.0968 57.75 52.25 55.9032 52.25 53.625C52.25 51.3468 54.0968 49.5 56.375 49.5C58.6531 49.5 60.5 51.3468 60.5 53.625C60.5 55.9032 58.6531 57.75 56.375 57.75ZM56.375 52.25C55.6156 52.25 54.9999 52.8656 54.9999 53.625C54.9999 54.3844 55.6156 55 56.375 55C57.1343 55 57.75 54.3844 57.75 53.625C57.75 52.8656 57.1343 52.25 56.375 52.25Z" fill="black"/>
<path d="M9.62504 57.75C7.34688 57.75 5.50004 55.9032 5.50004 53.625C5.50004 51.3468 7.34688 49.5 9.62504 49.5C11.9032 49.5 13.75 51.3468 13.75 53.625C13.75 55.9032 11.9032 57.75 9.62504 57.75ZM9.62504 52.25C8.86566 52.25 8.25 52.8656 8.25 53.625C8.25 54.3844 8.86566 55 9.62504 55C10.3844 55 11 54.3844 11 53.625C11 52.8656 10.3844 52.25 9.62504 52.25Z" fill="black"/>
</svg>
