<svg width="90" height="90" viewBox="0 0 90 90" fill="none" xmlns="http://www.w3.org/2000/svg">
<path d="M45.0685 19.3987C32.3303 19.3987 21.9232 29.8057 21.9232 42.5439C21.9232 49.2045 24.8372 55.6152 29.7493 59.9445C33.4126 63.6078 33.0796 71.4339 32.9963 71.5171C32.9963 71.9334 33.0796 72.2664 33.4126 72.5995C33.6624 72.8492 34.0786 73.0157 34.4117 73.0157H55.642C56.0583 73.0157 56.3913 72.8492 56.6411 72.5995C56.8909 72.3497 57.0574 71.9334 57.0574 71.5171C57.0574 71.4339 56.6411 63.6078 60.3044 59.9445C60.3876 59.8613 60.4709 59.778 60.5541 59.6947C65.383 55.2822 68.2137 49.0379 68.2137 42.5439C68.2137 29.8057 57.8067 19.3987 45.0685 19.3987ZM58.3895 57.7798C58.3062 57.8631 58.1397 58.0296 58.1397 58.1129C54.8927 61.6096 54.3099 67.3543 54.2266 70.1018H35.827C35.7438 67.3543 35.161 61.3599 31.6642 57.7798C27.2516 53.9501 24.6707 48.3719 24.6707 42.4607C24.6707 31.2211 33.7456 22.1462 44.9852 22.1462C56.2248 22.1462 65.2997 31.2211 65.2997 42.4607C65.2997 48.3719 62.802 53.9501 58.3895 57.7798Z" fill="#231F20"/>
<path d="M44.9852 25.3099C44.2359 25.3099 43.5699 25.9759 43.5699 26.7253C43.5699 27.4746 44.2359 28.1406 44.9852 28.1406C53.3941 28.1406 60.1378 34.9676 60.1378 43.2932C60.1378 44.0426 60.8039 44.7086 61.5532 44.7086C62.3025 44.7086 62.9686 44.0426 62.9686 43.2932C63.0518 33.3858 54.976 25.3099 44.9852 25.3099Z" fill="#231F20"/>
<path d="M54.2266 74.5976H35.7438C33.8289 74.5976 32.247 76.1795 32.247 78.0944C32.247 80.0093 33.8289 81.5911 35.7438 81.5911H54.1434C56.1415 81.5079 57.7234 80.0093 57.7234 78.0944C57.7234 76.1795 56.1415 74.5976 54.2266 74.5976ZM54.2266 78.6772H35.7438C35.4107 78.6772 35.0777 78.4274 35.0777 78.0111C35.0777 77.5948 35.3275 77.3451 35.7438 77.3451H54.1434C54.4764 77.3451 54.8094 77.5948 54.8094 78.0111C54.8094 78.4274 54.5597 78.6772 54.2266 78.6772Z" fill="#231F20"/>
<path d="M51.4792 83.0065H38.4912C36.5763 83.0065 34.9944 84.5883 34.9944 86.5032C34.9944 88.4181 36.5763 90 38.4912 90H51.4792C53.3941 90 54.9759 88.4181 54.9759 86.5032C54.9759 84.5051 53.3941 83.0065 51.4792 83.0065ZM51.4792 87.086H38.4912C38.1582 87.086 37.8252 86.8363 37.8252 86.42C37.8252 86.0037 38.0749 85.7539 38.4912 85.7539H51.4792C51.8122 85.7539 52.1452 86.0037 52.1452 86.42C52.1452 86.8363 51.8122 87.086 51.4792 87.086Z" fill="#231F20"/>
</svg>
